<?xml version="1.0" encoding="UTF-8"?>
<svg width="40px" height="40px" viewBox="0 0 40 40" version="1.1" xmlns="http://www.w3.org/2000/svg" xmlns:xlink="http://www.w3.org/1999/xlink">
    <title>Assets/Social/Instagram</title>
    <g id="Assets/Social/Instagram" stroke="none" stroke-width="1" fill="none" fill-rule="evenodd">
        <path d="M21.7118561,0.000986469816 C24.1736574,0.00436190537 25.3802488,0.0167672601 26.4100993,0.0471197231 L26.664504,0.0550868973 C26.7904894,0.0592625939 26.9151174,0.0637303249 27.0404946,0.0685075069 L27.2928717,0.0784796323 C27.5899332,0.0906071876 27.8987183,0.104482746 28.245986,0.12032756 C30.3747558,0.217421819 31.8286292,0.555544836 33.1007783,1.04998723 C34.415957,1.56102218 35.5313104,2.24488968 36.6432501,3.35674994 C37.7551103,4.46868959 38.4389778,5.58404302 38.9500922,6.89922167 C39.4444552,8.17137082 39.7825782,9.62524422 39.8796724,11.754014 C39.8955173,12.1012817 39.9093928,12.4100668 39.9215204,12.7071286 L39.9314925,12.9595062 C39.9362697,13.0848835 39.9407374,13.2095119 39.9449131,13.3354977 L39.9528803,13.5899034 C39.9832327,14.6197586 39.9956381,15.8263628 39.9990135,18.2881987 L39.99999,19.6287123 L39.99999,19.6287123 L40.000028,20.0000397 C40.000028,20.1263569 40.0000156,20.2501049 39.99999,20.3713617 L39.9990135,21.7118561 C39.9956381,24.1736574 39.9832327,25.3802488 39.9528803,26.4100993 L39.9449131,26.664504 C39.9407374,26.7904894 39.9362697,26.9151174 39.9314925,27.0404946 L39.9215204,27.2928717 C39.9093928,27.5899332 39.8955173,27.8987183 39.8796724,28.245986 C39.7825782,30.3747558 39.4444552,31.8286292 38.9500922,33.1007783 C38.4389778,34.415957 37.7551103,35.5313104 36.6432501,36.6432501 C35.5313104,37.7551103 34.415957,38.4389778 33.1007783,38.9500922 C31.8286292,39.4444552 30.3747558,39.7825782 28.245986,39.8796724 C27.8987183,39.8955173 27.5899332,39.9093928 27.2928717,39.9215204 L27.0404946,39.9314925 C26.9151174,39.9362697 26.7904894,39.9407374 26.664504,39.9449131 L26.4100993,39.9528803 C25.3802488,39.9832327 24.1736574,39.9956381 21.7118561,39.9990135 L20.3713617,39.99999 L20.3713617,39.99999 L20.0000397,40.000028 C19.8737206,40.000028 19.7499708,40.0000156 19.6287123,39.99999 L18.2881987,39.9990135 C15.8263628,39.9956381 14.6197586,39.9832327 13.5899034,39.9528803 L13.3354977,39.9449131 C13.2095119,39.9407374 13.0848835,39.9362697 12.9595062,39.9314925 L12.7071286,39.9215204 C12.4100668,39.9093928 12.1012817,39.8955173 11.754014,39.8796724 C9.62524422,39.7825782 8.17137082,39.4444552 6.89922167,38.9500922 C5.58404302,38.4389778 4.46868959,37.7551103 3.35674994,36.6432501 C2.24488968,35.5313104 1.56102218,34.415957 1.04998723,33.1007783 C0.555544836,31.8286292 0.217421819,30.3747558 0.12032756,28.245986 C0.104482746,27.8987183 0.0906071876,27.5899332 0.0784796323,27.2928717 L0.0685075069,27.0404946 C0.0637303249,26.9151174 0.0592625939,26.7904894 0.0550868973,26.664504 L0.0471197231,26.4100993 C0.0167672601,25.3802488 0.00436190537,24.1736574 0.000986469816,21.7118561 L0.000986469816,18.2881987 C0.00436190537,15.8263628 0.0167672601,14.6197586 0.0471197231,13.5899034 L0.0550868973,13.3354977 C0.0592625939,13.2095119 0.0637303249,13.0848835 0.0685075069,12.9595062 L0.0784796323,12.7071286 C0.0906071876,12.4100668 0.104482746,12.1012817 0.12032756,11.754014 C0.217421819,9.62524422 0.555544836,8.17137082 1.04998723,6.89922167 C1.56102218,5.58404302 2.24488968,4.46868959 3.35674994,3.35674994 C4.46868959,2.24488968 5.58404302,1.56102218 6.89922167,1.04998723 C8.17137082,0.555544836 9.62524422,0.217421819 11.754014,0.12032756 C12.1012817,0.104482746 12.4100668,0.0906071876 12.7071286,0.0784796323 L12.9595062,0.0685075069 C13.0848835,0.0637303249 13.2095119,0.0592625939 13.3354977,0.0550868973 L13.5899034,0.0471197231 C14.6197586,0.0167672601 15.8263628,0.00436190537 18.2881987,0.000986469816 Z M21.0745634,3.60390667 L18.9255002,3.60390667 C18.8136124,3.6039828 18.7041429,3.60407274 18.5970083,3.60417724 L17.9815515,3.60498492 C15.4301987,3.60929375 14.3443749,3.62445523 13.2570357,3.66361538 L13.0054166,3.67308434 C12.668108,3.68629359 12.3199719,3.70187063 11.9182724,3.72019844 C9.96828943,3.8091155 8.90930307,4.13493303 8.20455594,4.40882935 C7.27100615,4.77164273 6.60476329,5.20503403 5.90493835,5.90493835 C5.20503403,6.60476329 4.77164273,7.27100615 4.40882935,8.20455594 C4.13493303,8.90930307 3.8091155,9.96828943 3.72019844,11.9182724 C3.70187063,12.3199719 3.68629359,12.668108 3.67308434,13.0054166 L3.66361538,13.2570357 C3.62445523,14.3443749 3.60929375,15.4301987 3.60498492,17.9815515 L3.60417724,18.5970083 C3.60407274,18.7041429 3.6039828,18.8136124 3.60390667,18.9255002 L3.60390667,21.0745634 C3.6039828,21.1864496 3.60407274,21.2959175 3.60417724,21.4030505 L3.60498492,22.0184985 C3.60929375,24.5698152 3.62445523,25.655629 3.66361538,26.7429654 L3.67308434,26.9945839 C3.68629359,27.331892 3.70187063,27.6800281 3.72019844,28.0817276 C3.8091155,30.0317106 4.13493303,31.0906969 4.40882935,31.7954441 C4.77164273,32.7289939 5.20511342,33.3952367 5.90493835,34.0950616 C6.60476329,34.794966 7.27100615,35.2283573 8.20455594,35.5911707 C8.90930307,35.865067 9.96828943,36.1908845 11.9182724,36.2798016 C13.7257159,36.3622767 14.4485591,36.389049 17.981414,36.3950151 L18.5969096,36.3958228 C18.7040512,36.3959273 18.813528,36.3960172 18.9254235,36.3960933 L21.0746412,36.3960933 C21.1865353,36.3960172 21.2960108,36.3959273 21.4031512,36.3958228 L22.0186401,36.3950151 C25.5514603,36.389049 26.2743521,36.3622767 28.0817276,36.2798016 C30.0317106,36.1908845 31.0906969,35.865067 31.7954441,35.5911707 C32.7289939,35.2283573 33.3952367,34.794966 34.0950616,34.0950616 C34.794966,33.3952367 35.2283573,32.7289939 35.5911707,31.7954441 C35.865067,31.0906969 36.1908845,30.0317106 36.2798016,28.0817276 C36.2981294,27.6800281 36.3137064,27.331892 36.3269157,26.9945839 L36.3363846,26.7429654 C36.3755448,25.655629 36.3907063,24.5698152 36.3950151,22.0184985 L36.3958228,21.4030505 C36.3959273,21.2959175 36.3960172,21.1864496 36.3960933,21.0745634 L36.3960933,18.9255002 C36.3960172,18.8136124 36.3959273,18.7041429 36.3958228,18.5970083 L36.3950151,17.9815515 C36.3907063,15.4301987 36.3755448,14.3443749 36.3363846,13.2570357 L36.3269157,13.0054166 C36.3137064,12.668108 36.2981294,12.3199719 36.2798016,11.9182724 C36.1908845,9.96828943 35.865067,8.90930307 35.5911707,8.20455594 C35.2283573,7.27100615 34.794966,6.60476329 34.0950616,5.90493835 C33.3952367,5.20503403 32.7289939,4.77164273 31.7954441,4.40882935 C31.0906969,4.13493303 30.0317106,3.8091155 28.0817276,3.72019844 C27.6800281,3.70187063 27.331892,3.68629359 26.9945839,3.67308434 L26.7429654,3.66361538 C25.655629,3.62445523 24.5698152,3.60929375 22.0184985,3.60498492 L21.4030505,3.60417724 C21.2959175,3.60407274 21.1864496,3.6039828 21.0745634,3.60390667 Z M20.0000397,9.72972177 C25.6721545,9.72972177 30.2702782,14.3278455 30.2702782,20.0000397 C30.2702782,25.6721545 25.6721545,30.2702782 20.0000397,30.2702782 C14.3278455,30.2702782 9.72972177,25.6721545 9.72972177,20.0000397 C9.72972177,14.3278455 14.3278455,9.72972177 20.0000397,9.72972177 Z M20.0000397,13.333324 C16.3180793,13.333324 13.333324,16.3180793 13.333324,20.0000397 C13.333324,23.6819207 16.3180793,26.666676 20.0000397,26.666676 C23.6819207,26.666676 26.666676,23.6819207 26.666676,20.0000397 C26.666676,16.3180793 23.6819207,13.333324 20.0000397,13.333324 Z M30.6760417,6.92391204 C32.0015411,6.92391204 33.076088,7.99845888 33.076088,9.32395827 C33.076088,10.6494577 32.0015411,11.7239251 30.6760417,11.7239251 C29.3506217,11.7239251 28.2760749,10.6494577 28.2760749,9.32395827 C28.2760749,7.99845888 29.3506217,6.92391204 30.6760417,6.92391204 Z" id="Combined-Shape" fill="#FFFFFF"></path>
    </g>
</svg>