<svg width="82" height="46" xmlns="http://www.w3.org/2000/svg" xml:space="preserve" version="1.1">

 <g>
  <title>Layer 1</title>
  <g id="svg_1">
   <path id="svg_2" fill="#F5B1C6" d="m7.91,0l66.52,0c4.37,0 7.91,3.54 7.91,7.91l0,29.93c0,4.37 -3.54,7.91 -7.91,7.91l-66.52,0c-4.37,0 -7.91,-3.54 -7.91,-7.91l0,-29.94c0,-4.36 3.54,-7.9 7.91,-7.9z" class="st0"/>
   <path id="svg_3" fill="#0A0C0B" d="m74.64,26.79c-1.08,0 -1.95,0.88 -1.95,1.96c0,0 0,0 0,0c-0.01,1.08 0.87,1.96 1.95,1.97c0,0 0,0 0,0c1.08,0 1.95,-0.88 1.95,-1.97c0,-1.07 -0.87,-1.95 -1.95,-1.96c0,0 0,0 0,0zm-6.42,-1.52c0,-1.49 -1.26,-2.69 -2.82,-2.69c-1.56,0 -2.82,1.21 -2.82,2.69c0,1.49 1.26,2.69 2.82,2.69s2.82,-1.2 2.82,-2.69l0,0zm0.01,-5.24l3.11,0l0,10.47l-3.11,0l0,-0.67c-0.91,0.63 -1.98,0.96 -3.08,0.96c-3.02,0 -5.48,-2.47 -5.48,-5.53c0,-3.05 2.45,-5.53 5.48,-5.53c1.14,0 2.2,0.35 3.08,0.96l0,-0.66zm-24.87,1.37l0,-1.36l-3.18,0l0,10.47l3.19,0l0,-4.89c0,-1.65 1.77,-2.54 3,-2.54l0.04,0l0,-3.05c-1.27,0 -2.42,0.55 -3.05,1.37zm-7.92,3.87c0,-1.49 -1.26,-2.69 -2.82,-2.69s-2.82,1.21 -2.82,2.69s1.26,2.69 2.82,2.69s2.82,-1.2 2.82,-2.69l0,0zm0.01,-5.24l3.11,0l0,10.47l-3.11,0l0,-0.67c-0.88,0.6 -1.94,0.96 -3.08,0.96c-3.02,0 -5.48,-2.47 -5.48,-5.53c0,-3.05 2.45,-5.53 5.48,-5.53c1.14,0 2.2,0.35 3.08,0.96l0,-0.66zm18.7,-0.28c-1.24,0 -2.42,0.39 -3.2,1.46l0,-1.18l-3.09,0l0,10.47l3.13,0l0,-5.5c0,-1.59 1.06,-2.37 2.33,-2.37c1.36,0 2.15,0.82 2.15,2.35l0,5.53l3.1,0l0,-6.66c0,-2.44 -1.92,-4.1 -4.42,-4.1l0,0zm-31.79,10.76l3.25,0l0,-15.14l-3.25,0l0,15.14zm-14.28,0l3.45,0l0,-15.15l-3.44,0l-0.01,15.15zm12.05,-15.15c0,3.28 -1.27,6.33 -3.52,8.6l4.76,6.55l-4.26,0l-5.17,-7.12l1.34,-1.01c2.2,-1.66 3.5,-4.26 3.48,-7.02l3.37,0l0,0z" class="st1"/>
  </g>
 </g>
</svg>