<svg xmlns="http://www.w3.org/2000/svg" viewBox="0 0 24 24" fill="none">
  <path fill-rule="evenodd" clip-rule="evenodd" d="M11.7507 5.07162C8.89035 5.07162 6.57162 7.39035 6.57162 10.2507C6.57162 10.8363 6.8517 11.6565 7.40946 12.6471C7.95159 13.61 8.68802 14.6167 9.44533 15.5435C10.1994 16.4665 10.9563 17.2885 11.5261 17.881C11.6048 17.9628 11.6798 18.0401 11.7507 18.1126C11.8215 18.0401 11.8965 17.9628 11.9752 17.881C12.545 17.2885 13.3019 16.4665 14.056 15.5435C14.8133 14.6167 15.5497 13.61 16.0918 12.6471C16.6496 11.6565 16.9297 10.8363 16.9297 10.2507C16.9297 7.39035 14.611 5.07162 11.7507 5.07162ZM11.7507 19.5729L12.4632 20.3247L11.7507 21L11.0381 20.3247L11.7507 19.5729ZM4.5 10.2507C4.5 6.24623 7.74623 3 11.7507 3C15.7551 3 19.0013 6.24623 19.0013 10.2507C19.0013 11.3812 18.5045 12.5844 17.897 13.6635C17.2739 14.7703 16.4566 15.8796 15.6602 16.8543C14.8606 17.8329 14.0638 18.6979 13.4683 19.317C13.17 19.6272 12.9209 19.8771 12.7454 20.0503C12.6576 20.1369 12.5882 20.2045 12.5402 20.2509L12.4845 20.3044L12.4694 20.3188L12.4632 20.3247C12.463 20.3249 12.4632 20.3247 11.7507 19.5729C11.0381 20.3247 11.0383 20.3249 11.0381 20.3247L11.0319 20.3188L11.0168 20.3044L10.9612 20.2509C10.9131 20.2045 10.8437 20.1369 10.7559 20.0503C10.5805 19.8771 10.3313 19.6272 10.033 19.317C9.43754 18.6979 8.64073 17.8329 7.84113 16.8543C7.04473 15.8796 6.22745 14.7703 5.60429 13.6635C4.99677 12.5844 4.5 11.3812 4.5 10.2507ZM9.93799 10.2507C9.93799 9.24957 10.7495 8.43799 11.7507 8.43799C12.7518 8.43799 13.5633 9.24957 13.5633 10.2507C13.5633 11.2518 12.7518 12.0633 11.7507 12.0633C10.7495 12.0633 9.93799 11.2518 9.93799 10.2507ZM11.7507 10.5096C11.8937 10.5096 12.0096 10.3937 12.0096 10.2507C12.0096 10.1077 11.8937 9.9917 11.7507 9.9917C11.6077 9.9917 11.4917 10.1077 11.4917 10.2507C11.4917 10.3937 11.6076 10.5096 11.7507 10.5096Z" fill="currentColor"/>
</svg>