<svg width="26" height="16" fill="none" xmlns="http://www.w3.org/2000/svg"><g clip-path="url(#clip0_629_4253)"><path d="M0.504 15.9H24.696C24.9139 15.9 25.1 15.7114 25.1 15.4667V0.533333C25.1 0.288604 24.9139 0.1 24.696 0.1H0.504C0.286131 0.1 0.1 0.288604 0.1 0.533333V15.4667C0.1 15.7114 0.286132 15.9 0.504 15.9Z" fill="#fff" stroke="#CBCBCB" stroke-width="0.2"/><path d="M11.4113 9.63527L11.5476 8.76526L11.244 8.75819H9.79422L10.8018 2.33836C10.8049 2.31898 10.8151 2.30091 10.8299 2.28808C10.8448 2.27524 10.8638 2.26817 10.8836 2.26817H13.3282C14.1397 2.26817 14.6998 2.43788 14.9922 2.77284C15.1293 2.92998 15.2166 3.09419 15.2588 3.2749C15.3031 3.46451 15.3039 3.69105 15.2606 3.96735L15.2575 3.98751V4.16455L15.3946 4.2426C15.5101 4.30414 15.6018 4.37459 15.6722 4.45526C15.7894 4.58961 15.8653 4.76036 15.8973 4.96281C15.9304 5.17101 15.9195 5.41877 15.8653 5.69926C15.8027 6.02191 15.7016 6.30292 15.565 6.53287C15.4394 6.74474 15.2794 6.92047 15.0894 7.05666C14.908 7.18603 14.6925 7.28424 14.4488 7.3471C14.2127 7.4089 13.9435 7.44007 13.6482 7.44007H13.458C13.3219 7.44007 13.1898 7.48931 13.0861 7.57757C12.9821 7.66766 12.9133 7.79075 12.8922 7.92536L12.8778 8.00367L12.637 9.53706L12.6261 9.59337C12.6232 9.61118 12.6183 9.62008 12.611 9.62611C12.6044 9.63161 12.5951 9.63527 12.5859 9.63527H11.4113Z" fill="#253B80"/><path d="M15.5244 4.00795C15.5171 4.05483 15.5088 4.10276 15.4994 4.15199C15.177 5.81529 14.0741 6.38988 12.6654 6.38988H11.9482C11.776 6.38988 11.6308 6.51559 11.6039 6.68635L11.2367 9.02664L11.1328 9.69002C11.1153 9.80211 11.2013 9.9032 11.3139 9.9032H12.5859C12.7366 9.9032 12.8645 9.7932 12.8883 9.64392L12.9008 9.57897L13.1403 8.0516L13.1557 7.9678C13.1791 7.81799 13.3073 7.708 13.458 7.708H13.6482C14.8807 7.708 15.8455 7.20516 16.1275 5.75007C16.2453 5.14222 16.1843 4.63466 15.8726 4.2777C15.7782 4.17006 15.6612 4.08076 15.5244 4.00795V4.00795Z" fill="#179BD7"/><path d="M15.1872 3.87281C15.1379 3.85841 15.0871 3.84531 15.035 3.83353C14.9826 3.822 14.9289 3.81179 14.8736 3.80289C14.6803 3.77146 14.4684 3.75653 14.2414 3.75653H12.3253C12.2782 3.75653 12.2333 3.76727 12.1932 3.78665C12.1048 3.82934 12.0392 3.91341 12.0233 4.01633L11.6157 6.61066L11.6039 6.68635C11.6308 6.51559 11.7759 6.38988 11.9482 6.38988H12.6654C14.0741 6.38988 15.177 5.81502 15.4994 4.15199C15.509 4.10276 15.5171 4.05483 15.5244 4.00795C15.4428 3.96448 15.3545 3.92729 15.2593 3.8956C15.2359 3.88774 15.2117 3.88015 15.1872 3.87281V3.87281Z" fill="#222D65"/><path d="M12.0233 4.01633C12.0392 3.9134 12.1048 3.82933 12.1932 3.78691C12.2336 3.76753 12.2781 3.75679 12.3253 3.75679H14.2414C14.4684 3.75679 14.6802 3.77172 14.8736 3.80315C14.9289 3.81205 14.9826 3.82226 15.0349 3.83379C15.0871 3.84557 15.1379 3.85867 15.1871 3.87307C15.2116 3.8804 15.2359 3.888 15.2596 3.89559C15.3547 3.92728 15.4431 3.96473 15.5246 4.00795C15.6206 3.39328 15.5239 2.97477 15.1931 2.59581C14.8285 2.17861 14.1705 2 13.3284 2H10.8838C10.7118 2 10.5651 2.12571 10.5385 2.29673L9.5203 8.78255C9.50024 8.91088 9.59875 9.02664 9.72749 9.02664H11.2367L11.6157 6.61066L12.0233 4.01633Z" fill="#253B80"/><path d="M7.94601 10.7733H7.00875C6.94461 10.7733 6.89006 10.8202 6.88006 10.8838L6.50098 13.299C6.49345 13.3466 6.53017 13.3896 6.57828 13.3896H7.02574C7.08988 13.3896 7.14442 13.3428 7.15443 13.279L7.25666 12.6276C7.26653 12.5638 7.32121 12.517 7.38522 12.517H7.68192C8.29932 12.517 8.65565 12.2168 8.7487 11.6218C8.79064 11.3615 8.75048 11.157 8.6292 11.0138C8.49599 10.8565 8.25972 10.7733 7.94601 10.7733ZM8.05414 11.6554C8.00289 11.9934 7.74592 11.9934 7.49746 11.9934H7.35602L7.45525 11.3622C7.46114 11.3241 7.49403 11.296 7.5324 11.296H7.59723C7.76648 11.296 7.92614 11.296 8.00864 11.3929C8.05784 11.4508 8.07292 11.5367 8.05414 11.6554V11.6554Z" fill="#253B80"/><path d="M10.7477 11.6446H10.2988C10.2606 11.6446 10.2276 11.6727 10.2217 11.7108L10.2018 11.837L10.1704 11.7912C10.0733 11.6495 9.8566 11.6022 9.64034 11.6022C9.14436 11.6022 8.72075 11.9796 8.63824 12.5092C8.59535 12.7733 8.65633 13.0259 8.80544 13.202C8.94221 13.364 9.13792 13.4315 9.37076 13.4315C9.77039 13.4315 9.992 13.1733 9.992 13.1733L9.97199 13.2986C9.96445 13.3465 10.0012 13.3895 10.049 13.3895H10.4533C10.5176 13.3895 10.5718 13.3427 10.582 13.2789L10.8246 11.7352C10.8322 11.6877 10.7956 11.6446 10.7477 11.6446V11.6446ZM10.1221 12.5224C10.0788 12.7801 9.87524 12.9531 9.61567 12.9531C9.48533 12.9531 9.38118 12.911 9.3143 12.8314C9.24797 12.7524 9.22275 12.6399 9.24386 12.5146C9.28429 12.2591 9.49123 12.0805 9.74682 12.0805C9.87428 12.0805 9.97788 12.123 10.0461 12.2033C10.1145 12.2844 10.1417 12.3976 10.1221 12.5224V12.5224Z" fill="#253B80"/><path d="M13.1381 11.6446H12.687C12.644 11.6446 12.6036 11.6661 12.5792 11.702L11.9571 12.6228L11.6934 11.738C11.6769 11.6826 11.626 11.6446 11.5685 11.6446H11.1252C11.0714 11.6446 11.034 11.6975 11.0511 11.7484L11.5479 13.2135L11.0808 13.8761C11.0441 13.9282 11.0811 14 11.1446 14H11.595C11.6378 14 11.6778 13.9791 11.7021 13.9438L13.2022 11.7678C13.2381 11.7158 13.2012 11.6446 13.1381 11.6446V11.6446Z" fill="#253B80"/><path d="M14.6313 10.7734H13.6939C13.6299 10.7734 13.5754 10.8202 13.5654 10.8838L13.1863 13.299C13.1788 13.3467 13.2155 13.3896 13.2633 13.3896H13.7444C13.7891 13.3896 13.8273 13.3568 13.8343 13.3122L13.9419 12.6276C13.9517 12.5639 14.0064 12.517 14.0704 12.517H14.367C14.9845 12.517 15.3407 12.2168 15.4339 11.6219C15.476 11.3616 15.4355 11.157 15.3143 11.0138C15.1812 10.8565 14.945 10.7734 14.6313 10.7734ZM14.7395 11.6555C14.6884 11.9934 14.4314 11.9934 14.1828 11.9934H14.0415L14.1409 11.3623C14.1467 11.3241 14.1794 11.296 14.2179 11.296H14.2827C14.4518 11.296 14.6116 11.296 14.6941 11.393C14.7433 11.4508 14.7583 11.5367 14.7395 11.6555V11.6555Z" fill="#179BD7"/><path d="M17.4329 11.6446H16.9843C16.9458 11.6446 16.913 11.6727 16.9073 11.7108L16.8874 11.837L16.8559 11.7912C16.7587 11.6495 16.5422 11.6022 16.3259 11.6022C15.8299 11.6022 15.4065 11.9796 15.324 12.5092C15.2812 12.7733 15.3419 13.0259 15.491 13.202C15.6281 13.364 15.8235 13.4315 16.0563 13.4315C16.456 13.4315 16.6776 13.1733 16.6776 13.1733L16.6576 13.2986C16.65 13.3465 16.6868 13.3895 16.7349 13.3895H17.139C17.203 13.3895 17.2576 13.3427 17.2676 13.2789L17.5103 11.7352C17.5177 11.6877 17.481 11.6446 17.4329 11.6446V11.6446ZM16.8072 12.5224C16.7642 12.7801 16.5604 12.9531 16.3008 12.9531C16.1708 12.9531 16.0664 12.911 15.9995 12.8314C15.9331 12.7524 15.9082 12.6399 15.929 12.5146C15.9697 12.2591 16.1764 12.0805 16.432 12.0805C16.5595 12.0805 16.6631 12.123 16.7313 12.2033C16.8 12.2844 16.8271 12.3976 16.8072 12.5224V12.5224Z" fill="#179BD7"/><path d="M17.962 10.8396L17.5773 13.299C17.5698 13.3467 17.6065 13.3896 17.6543 13.3896H18.0411C18.1054 13.3896 18.1599 13.3428 18.1698 13.279L18.5491 10.864C18.5567 10.8163 18.5199 10.7732 18.4721 10.7732H18.039C18.0008 10.7734 17.9679 10.8015 17.962 10.8396Z" fill="#179BD7"/></g><defs><clipPath id="clip0_629_4253"><path fill="#fff" d="M0 0H25.2V16H0z"/></clipPath></defs></svg>