<svg xmlns="http://www.w3.org/2000/svg" viewBox="0 0 24 24" fill="none">
  <path fill-rule="evenodd" clip-rule="evenodd" d="M3 10.875C3 6.52576 6.52576 3 10.875 3C15.2242 3 18.75 6.52575 18.75 10.875C18.75 12.6434 18.1662 14.2769 17.1821 15.5911L20.6705 19.0795C21.1098 19.5188 21.1098 20.2312 20.6705 20.6705C20.2312 21.1098 19.5188 21.1098 19.0795 20.6705L15.5911 17.1821C14.2768 18.1661 12.6434 18.75 10.875 18.75C6.52575 18.75 3 15.2242 3 10.875ZM10.875 5.25C7.7684 5.25 5.25 7.7684 5.25 10.875C5.25 13.9816 7.7684 16.5 10.875 16.5C12.4313 16.5 13.8382 15.8694 14.8578 14.8472L14.8578 14.8472C15.8738 13.8285 16.5 12.426 16.5 10.875C16.5 7.7684 13.9816 5.25 10.875 5.25Z" fill="currentColor"/>
</svg>