<svg xmlns="http://www.w3.org/2000/svg" viewBox="0 0 24 24" fill="none">
  <path fill-rule="evenodd" clip-rule="evenodd" d="M3.58999 4.53512C4.02777 4.40379 4.48913 4.65221 4.62047 5.08999L5.06422 6.56916H20.1724C20.434 6.56916 20.6802 6.69285 20.8364 6.90273C20.9925 7.11261 21.0403 7.38397 20.9651 7.63454L18.4824 15.9103C18.3773 16.2603 18.0552 16.5001 17.6897 16.5001H6.9312C6.56574 16.5001 6.24354 16.2603 6.13853 15.9103L3.03512 5.5656C2.90379 5.12781 3.15221 4.66645 3.58999 4.53512ZM5.56076 8.22431L7.54695 14.8449H17.0739L19.0601 8.22431H5.56076ZM8.58636 17.7414C9.04341 17.7414 9.41393 18.1119 9.41393 18.569C9.41393 18.7975 9.5992 18.9828 9.82772 18.9828C10.0562 18.9828 10.2415 18.7975 10.2415 18.569C10.2415 18.1119 10.612 17.7414 11.0691 17.7414C11.5261 17.7414 11.8967 18.1119 11.8967 18.569C11.8967 19.7116 10.9703 20.6379 9.82772 20.6379C8.68506 20.6379 7.75878 19.7116 7.75878 18.569C7.75878 18.1119 8.1293 17.7414 8.58636 17.7414ZM13.5518 17.7414C14.0089 17.7414 14.3794 18.1119 14.3794 18.569C14.3794 18.7975 14.5647 18.9828 14.7932 18.9828C15.0217 18.9828 15.207 18.7975 15.207 18.569C15.207 18.1119 15.5775 17.7414 16.0345 17.7414C16.4916 17.7414 16.8621 18.1119 16.8621 18.569C16.8621 19.7116 15.9358 20.6379 14.7932 20.6379C13.6506 20.6379 12.7242 19.7116 12.7242 18.569C12.7242 18.1119 13.0948 17.7414 13.5518 17.7414Z" fill="currentColor"/>
</svg>