<?xml version="1.0" encoding="UTF-8"?>
<svg width="40px" height="40px" viewBox="0 0 40 40" version="1.1" xmlns="http://www.w3.org/2000/svg" xmlns:xlink="http://www.w3.org/1999/xlink">
    <title>Assets/Social/Twitter</title>
    <g id="Assets/Social/Twitter" stroke="none" stroke-width="1" fill="none" fill-rule="evenodd">
        <path d="M35.9055489,12.09096 C35.9296005,12.4429577 35.9296005,12.7965805 35.9296005,13.1516658 C35.9296005,23.996639 27.6735815,36.502144 12.5791223,36.502144 L12.5791223,36.4958061 C8.11983521,36.5016565 3.7530166,35.2241617 0,32.8155942 C0.648254231,32.8932742 1.30057122,32.9329267 1.95353826,32.9340643 C5.6496762,32.9378021 9.23953229,31.6980097 12.1455444,29.4142502 C8.63450585,29.3481085 5.55347,27.058011 4.4784633,23.7148458 C5.70817996,23.9517861 6.97576156,23.9035205 8.18402685,23.5741118 C4.35479284,22.800562 1.60105307,19.4357829 1.60007801,15.5293564 C1.60007801,15.4940916 1.60007801,15.4588268 1.60007801,15.4253497 C2.74122647,16.0614156 4.01872121,16.4137383 5.32481779,16.4525783 C1.71838562,14.0443358 0.605839001,9.24718947 2.78396672,5.49726057 C6.95105997,10.6243031 13.0989932,13.7409288 19.697568,14.0716375 C19.0359879,11.2216916 19.9403587,8.23491181 22.0716834,6.23050777 C25.3764961,3.12249519 30.5752058,3.28208047 33.6832184,6.58689322 C35.5210492,6.22449489 37.2833126,5.55088902 38.8944413,4.59500249 C38.2817769,6.49539983 36.9995693,8.10847867 35.2863841,9.13408219 C36.9132763,8.94199482 38.5021411,8.5066293 40,7.84293657 C38.8980166,9.49079265 37.5116398,10.9291727 35.9055489,12.09096" id="Fill-1" fill="#FFFFFF"></path>
    </g>
</svg>