<svg xmlns="http://www.w3.org/2000/svg" viewBox="0 0 24 24" fill="none">
  <path fill-rule="evenodd" clip-rule="evenodd" d="M7.5 8C7.5 5.23858 9.73857 3 12.5 3C15.2614 3 17.5 5.23857 17.5 8C17.5 9.4803 16.8567 10.8104 15.8344 11.7259C18.5879 12.9901 20.5 15.7717 20.5 19V20C20.5 20.5523 20.0523 21 19.5 21C18.9477 21 18.5 20.5523 18.5 20V19C18.5 15.6863 15.8137 13 12.5 13C9.18629 13 6.5 15.6863 6.5 19V20C6.5 20.5523 6.05228 21 5.5 21C4.94772 21 4.5 20.5523 4.5 20V19C4.5 15.7718 6.41214 12.9901 9.1656 11.7259C8.1433 10.8104 7.5 9.4803 7.5 8ZM12.5 5C10.8431 5 9.5 6.34314 9.5 8C9.5 9.65682 10.8432 11 12.5 11C14.1568 11 15.5 9.65682 15.5 8C15.5 6.34315 14.1568 5 12.5 5Z" fill="currentColor"/>
</svg>