<?xml version="1.0" encoding="UTF-8"?>
<svg width="40px" height="40px" viewBox="0 0 40 40" version="1.1" xmlns="http://www.w3.org/2000/svg" xmlns:xlink="http://www.w3.org/1999/xlink">
    <title>Assets/Social/Youtube</title>
    <g id="Assets/Social/Youtube" stroke="none" stroke-width="1" fill="none" fill-rule="evenodd">
        <path d="M20.2154842,6.00041796 C20.244825,6.00050155 20.2768807,6.00060186 20.3115639,6.00072223 L20.6922869,6.00243753 C21.983423,6.00947927 24.8730011,6.03686383 27.8210552,6.14335934 L28.5017125,6.16936631 C31.4496507,6.28838047 34.337606,6.49102621 35.6256125,6.83607165 C37.3474985,7.29627342 38.7033972,8.65250154 39.1635989,10.3740581 C39.9128749,13.1701942 39.9909245,18.6869254 39.9990546,19.8059043 L39.9997958,19.9327833 C39.9998639,19.9489342 39.9999092,19.9625275 39.9999395,19.9734738 L39.9999395,20.0398694 C39.9999092,20.0508163 39.9998639,20.0644103 39.9997958,20.0805619 L39.9990546,20.2074468 C39.9909245,21.3264777 39.9128749,26.8434425 39.1635989,29.6392835 C38.7033972,31.36084 37.3474985,32.7173976 35.6256125,33.1772699 C34.337606,33.5224513 31.4496507,33.7251769 28.5017125,33.844238 L27.8210552,33.8702552 C24.532841,33.9890854 21.3173759,34.0094563 20.3115639,34.0129485 L19.6683498,34.0129485 C17.6914604,34.0060846 7.17832877,33.9340137 4.35462219,33.1772699 C2.63273626,32.7173976 1.27683755,31.36084 0.816635783,29.6392835 C0.102209869,26.9734816 -0.00197724361,21.833797 -0.0171711975,20.3914169 L-0.0188199193,20.2074468 C-0.0190089928,20.1814229 -0.0191602517,20.1577774 -0.0192812588,20.1366001 L-0.0192812588,19.8767478 C-0.0191602517,19.8555714 -0.0190089928,19.8319271 -0.0188199193,19.8059043 L-0.0171711975,19.6219426 C-0.00197724361,18.1796266 0.102209869,13.0401414 0.816635783,10.3740581 C1.27683755,8.65250154 2.63273626,7.29627342 4.35462219,6.83607165 C7.02971264,6.11943881 16.6061153,6.01706269 19.2876367,6.00243753 L19.6683498,6.00072223 C19.7030321,6.00060186 19.735087,6.00050155 19.764427,6.00041796 Z M15.9881408,14.0036236 L15.9881408,26.0097179 L26.3850113,20.0070002 L15.9881408,14.0036236 Z" id="Combined-Shape" fill="#FFFFFF"></path>
    </g>
</svg>